<?xml version="1.0" encoding="UTF-8" standalone="no"?>
<svg width="18px" height="18px" viewBox="0 0 18 18" version="1.1" xmlns="http://www.w3.org/2000/svg" xmlns:xlink="http://www.w3.org/1999/xlink">
    <!-- Generator: Sketch 42 (36781) - http://www.bohemiancoding.com/sketch -->
    <title>action-edit</title>
    <desc>Created with Sketch.</desc>
    <defs></defs>
    <g id="Page-1" stroke="none" stroke-width="1" fill="none" fill-rule="evenodd">
        <g id="Desktop-HD" transform="translate(-252.000000, -99.000000)" fill-rule="nonzero" fill="#FFFFFF">
            <g id="Action-Edit" transform="translate(252.000000, 99.000000)">
                <path d="M14.3713333,8.84444444 C14.3713333,9.69755556 14.8977037,10.3705926 15.6905185,10.8342222 C15.5479259,11.3117037 15.3588889,11.7671852 15.1266667,12.1965926 C14.2393333,11.966 13.5214815,12.3131111 12.9177037,12.9160741 C12.3131111,13.5206667 12.128963,14.2385185 12.3611852,15.125037 C11.930963,15.3572593 11.4746667,15.5462963 10.9988148,15.6897037 C10.5351852,14.8977037 9.69837037,14.3721481 8.84525926,14.3721481 C7.99133333,14.3721481 7.15451852,14.8968889 6.6917037,15.6897037 C6.21503704,15.5471111 5.75874074,15.3572593 5.32933333,15.125037 C5.56155556,14.2385185 5.37577778,13.5206667 4.772,12.9160741 C4.16903704,12.3122963 3.45118519,12.1281481 2.56303704,12.3603704 C2.33081481,11.9301481 2.14259259,11.4738519 2,10.998 C2.79037037,10.5343704 3.31592593,9.69755556 3.31592593,8.84444444 C3.31592593,7.9897037 2.79037037,7.31666667 2,6.85385185 C2.14177778,6.378 2.33081481,5.92088889 2.56303704,5.49148148 C3.45118519,5.7237037 4.16903704,5.37659259 4.772,4.772 C5.37740741,4.16903704 5.56155556,3.45118519 5.32933333,2.56303704 C5.75874074,2.33081481 6.21422222,2.14096296 6.69088889,2 C7.15451852,2.79037037 7.99051852,3.31592593 8.84444444,3.31592593 C9.69755556,3.31592593 10.5343704,2.79037037 10.9971852,2 C11.473037,2.14096296 11.9301481,2.33081481 12.3595556,2.56303704 C12.1273333,3.45118519 12.3122963,4.16903704 12.9160741,4.772 C13.5198519,5.37659259 14.2377037,5.7237037 15.125037,5.49148148 C15.3572593,5.92088889 15.5454815,6.378 15.6888889,6.85385185 C14.8977037,7.31666667 14.3713333,7.9897037 14.3713333,8.84444444 Z M9,12 C10.6568542,12 12,10.6568542 12,9 C12,7.34314575 10.6568542,6 9,6 C7.34314575,6 6,7.34314575 6,9 C6,10.6568542 7.34314575,12 9,12 Z" id="Combined-Shape"></path>
            </g>
        </g>
    </g>
</svg>