<?xml version="1.0" encoding="UTF-8"?>
<svg width="24px" height="24px" viewBox="0 0 24 24" version="1.1" xmlns="http://www.w3.org/2000/svg" xmlns:xlink="http://www.w3.org/1999/xlink">
    <!-- Generator: Sketch 43.2 (39069) - http://www.bohemiancoding.com/sketch -->
    <title>appearance</title>
    <desc>Created with Sketch.</desc>
    <defs></defs>
    <g id="Page-1" stroke="none" stroke-width="1" fill="none" fill-rule="evenodd">
        <g id="Artboard" transform="translate(-25.000000, 0.000000)">
            <g id="Appearance" transform="translate(25.000000, 0.000000)">
                <g id="BG">
                    <rect id="Rectangle" x="0" y="0" width="24" height="24"></rect>
                </g>
                <path d="M9.07521102,19.0243375 C9.33834399,18.2827981 9.73518622,17.2392059 10.2674519,15.7304525 C12.5876504,15.4065009 13.5476143,15.9879524 15.0209875,13.6696977 C13.8253182,13.992139 12.3836581,13.0716333 12.4607981,12.6721685 C12.5387951,12.2734589 15.814672,12.9598737 17.9600199,10.2761352 C15.2558359,10.801707 14.3910112,9.64484498 14.7398552,9.47040953 C15.5446821,9.06716913 17.9334495,9.30277026 19.2071159,8.21009449 C19.8636627,7.64752127 20.1713654,6.27997752 19.9039469,5.79216235 C19.5833875,5.20240439 17.627461,4.3226758 16.5492158,4.4057403 C15.4709706,4.48804967 13.7798913,8.0228218 13.2776245,7.99563705 C12.7770719,7.96769717 12.6750757,6.41137046 13.5510428,4.96529299 C12.6279346,5.32549088 10.9359982,6.44459626 10.4054467,7.40134829 C9.41719817,9.18119403 10.4980147,13.2657021 10.151742,13.4106874 C9.80461218,13.5564279 8.6380846,11.5372054 8.29009768,10.6212304 C7.81440127,12.0250205 7.80325883,13.431076 9.19263518,15.298517 C8.66894058,16.524096 8.38266563,17.9346823 8.33895298,18.6520575 C8.31838233,19.2252026 8.95950109,19.3482891 9.07521102,19.0243375 Z" id="appearance" fill="#FFFFFF" fill-rule="nonzero"></path>
            </g>
        </g>
    </g>
</svg>