<?xml version="1.0" encoding="UTF-8" standalone="no"?>
<svg width="26px" height="26px" viewBox="0 0 26 26" version="1.1" xmlns="http://www.w3.org/2000/svg" xmlns:xlink="http://www.w3.org/1999/xlink">
    <!-- Generator: Sketch 42 (36781) - http://www.bohemiancoding.com/sketch -->
    <title>configuration</title>
    <desc>Created with Sketch.</desc>
    <defs></defs>
    <g id="Page-1" stroke="none" stroke-width="1" fill="none" fill-rule="evenodd">
        <g id="Desktop-HD" transform="translate(-597.000000, -277.000000)" fill-rule="nonzero" fill="#FFFFFF">
            <g id="Manage-Icons" transform="translate(597.000000, 169.000000)">
                <g id="configuration" transform="translate(0.000000, 108.000000)">
                    <path d="M6.135,9.89 C7.068,9.165 7.842,9.665 8.875,10.861 C8.991,10.996 9.147,10.838 9.236,10.761 C9.324,10.683 10.687,9.456 10.754,9.4 C10.82,9.341 10.9,9.231 10.795,9.108 C10.688,8.985 10.301,8.483 10.052,8.157 C8.244,5.792 14.998,4.188 13.961,4.163 C13.433,4.149 11.315,4.124 10.998,4.159 C9.715,4.294 8.104,5.493 7.293,6.052 C6.232,6.778 5.836,7.204 5.771,7.263 C5.471,7.525 5.723,8.13 5.179,8.607 C4.604,9.11 4.245,8.729 3.912,9.021 C3.747,9.167 3.285,9.513 3.153,9.628 C3.02,9.745 2.996,9.942 3.132,10.099 C3.132,10.099 4.396,11.495 4.502,11.619 C4.607,11.741 4.893,11.847 5.069,11.69 C5.246,11.534 5.701,11.137 5.777,11.067 C5.855,11.001 5.727,10.206 6.135,9.89 Z M11.843,10.407 C11.723,10.268 11.574,10.264 11.446,10.378 L10.012,11.63 C9.899,11.73 9.883,11.913 9.985,12.03 L18.279,21.469 C18.473,21.692 18.809,21.715 19.03,21.522 L20,20.709 C20.222,20.514 20.245,20.176 20.052,19.951 L11.843,10.407 Z M22.902,6.39 C22.828,5.896 22.572,5.999 22.439,6.208 C22.306,6.419 21.718,7.31 21.476,7.714 C21.236,8.114 20.644,8.905 19.542,8.124 C18.394,7.313 18.793,6.747 18.993,6.366 C19.194,5.983 19.811,4.909 19.9,4.776 C19.989,4.641 19.885,4.249 19.529,4.413 C19.172,4.577 17.006,5.438 16.706,6.673 C16.399,7.929 16.963,9.052 15.856,10.167 L14.513,11.567 L15.862,13.133 L17.516,11.563 C17.91,11.167 18.752,10.782 19.514,10.956 C21.147,11.325 22.038,10.712 22.575,9.698 C23.057,8.792 22.977,6.884 22.902,6.39 Z M5.739,20.053 C5.531,20.262 5.531,20.602 5.739,20.811 L6.69,21.741 C6.898,21.95 7.228,21.862 7.436,21.653 L12.343,16.829 L10.84,15.115 L5.739,20.053 Z" id="Shape"></path>
                </g>
            </g>
        </g>
    </g>
</svg>