<?xml version="1.0" encoding="UTF-8"?>
<svg width="24px" height="24px" viewBox="0 0 24 24" version="1.1" xmlns="http://www.w3.org/2000/svg" xmlns:xlink="http://www.w3.org/1999/xlink">
    <!-- Generator: Sketch 43.2 (39069) - http://www.bohemiancoding.com/sketch -->
    <title>config</title>
    <desc>Created with Sketch.</desc>
    <defs></defs>
    <g id="Page-1" stroke="none" stroke-width="1" fill="none" fill-rule="evenodd">
        <g id="Artboard" transform="translate(-50.000000, -30.000000)">
            <g id="Config" transform="translate(50.000000, 30.000000)">
                <g id="BG">
                    <rect id="Rectangle" x="0" y="0" width="24" height="24"></rect>
                </g>
                <path d="M6.5264168,8.75925016 C7.27590226,8.17685256 7.89766191,8.57850608 8.72747807,9.53926129 C8.82066169,9.64770774 8.94597759,9.52078523 9.01747191,9.45893059 C9.08816293,9.39627264 10.1830704,8.41061491 10.236892,8.36562972 C10.2899103,8.3182346 10.3541748,8.22987083 10.2698276,8.13106406 C10.1838737,8.0322573 9.8729939,7.62899717 9.67297045,7.36711907 C8.22059133,5.46729794 13.646127,4.17879346 12.8130976,4.15871079 C12.3889515,4.14746449 10.6875472,4.12738181 10.4328989,4.15549756 C9.40225598,4.26394401 8.10812835,5.22710914 7.45664635,5.67615777 C6.60433759,6.25935868 6.286228,6.60156747 6.23401304,6.64896259 C5.99302093,6.85942903 6.19545431,7.34542978 5.75845528,7.72860724 C5.29655374,8.13267068 5.00816651,7.8266107 4.74066527,8.06117635 C4.60811961,8.17845918 4.23699176,8.45640341 4.13095523,8.54878372 C4.0241154,8.64277064 4.00483603,8.80102213 4.11408578,8.92714133 C4.11408578,8.92714133 5.12946587,10.0485579 5.21461642,10.148168 C5.29896366,10.2461715 5.52870947,10.331322 5.67009151,10.2052028 C5.81227685,10.0798869 6.17778155,9.76097403 6.23883289,9.70474254 C6.30149083,9.65172427 6.19866753,9.01309518 6.5264168,8.75925016 Z M11.1116933,9.1745599 C11.0152965,9.06290022 10.8956038,9.05968699 10.7927805,9.15126399 L9.64083817,10.1570044 C9.55006447,10.2373351 9.53721156,10.3843403 9.61914888,10.4783272 L16.2817774,18.0607423 C16.437619,18.2398798 16.7075301,18.2583558 16.885061,18.1033176 L17.6642688,17.4502289 C17.842603,17.2935841 17.861079,17.0220663 17.7060408,16.8413222 L11.1116933,9.1745599 Z M19.9954658,5.94767555 C19.9360211,5.55084187 19.7303745,5.6335825 19.6235347,5.80147367 C19.5166948,5.97097145 19.0443503,6.68671802 18.84995,7.01125406 C18.6571563,7.33257687 18.1815985,7.96799273 17.2963542,7.34060994 C16.3741577,6.68912794 16.6946772,6.23445616 16.8553386,5.92839618 C17.0168033,5.62072959 17.5124438,4.75797783 17.5839381,4.651138 C17.6554324,4.54269155 17.5718885,4.22779519 17.2859112,4.35953754 C16.9991306,4.4912799 15.2591676,5.18292725 15.0181754,6.17501144 C14.7715602,7.18396507 15.2246254,8.08607887 14.3353645,8.98176621 L13.2565231,10.1063961 L14.3401843,11.3643749 L15.6688541,10.1031828 C15.9853571,9.78507324 16.6617416,9.47580003 17.2738616,9.61557546 C18.585662,9.91199575 19.3014085,9.41956854 19.7327844,8.60501521 C20.1199784,7.87721904 20.0557138,6.34450922 19.9954658,5.94767555 Z M6.20830722,16.9232595 C6.04121936,17.0911507 6.04121936,17.3642751 6.20830722,17.5321663 L6.97225221,18.2792418 C7.13934007,18.447133 7.40443139,18.376442 7.57151925,18.2085508 L11.5133469,14.3333977 L10.3059764,12.9565294 L6.20830722,16.9232595 Z" fill="#FFFFFF" fill-rule="nonzero"></path>
            </g>
        </g>
    </g>
</svg>