<?xml version="1.0" encoding="UTF-8" standalone="no"?>
<svg width="64px" height="64px" viewBox="0 0 64 64" version="1.1" xmlns="http://www.w3.org/2000/svg" xmlns:xlink="http://www.w3.org/1999/xlink">
    <!-- Generator: Sketch 42 (36781) - http://www.bohemiancoding.com/sketch -->
    <title>contextual</title>
    <desc>Created with Sketch.</desc>
    <defs></defs>
    <g id="Page-1" stroke="none" stroke-width="1" fill="none" fill-rule="evenodd">
        <g id="Desktop-HD" transform="translate(-33.000000, -736.000000)" fill-rule="nonzero" fill="#FFFFFF">
            <g id="Menu" transform="translate(33.000000, 85.000000)">
                <g id="contextual" transform="translate(0.000000, 651.000000)">
                    <path d="M40.5919981,23.4073443 C38.9533659,21.7675758 37.7226872,22.0130297 37.7226872,22.0130297 L30.845432,28.8902849 L23.1477243,36.5868562 L22,41.9982061 L27.4124862,40.8504817 L35.1101939,33.1561831 L41.9874491,26.2789279 C41.9863127,26.2789279 42.232903,25.0482493 40.5919981,23.4073443 Z M27.0908961,40.2004834 L25.2454463,40.5982096 C25.068174,40.2652559 24.8534018,39.9323022 24.4613574,39.5391214 C24.0681765,39.1459406 23.7352229,38.9334411 23.4022692,38.7538961 L23.7999954,36.9095827 L24.334085,36.3766295 C24.334085,36.3766295 25.3374915,36.397084 26.4715795,37.531172 C27.6045312,38.6629873 27.626122,39.6686665 27.626122,39.6686665 L27.0908961,40.2004834 Z"></path>
                </g>
            </g>
        </g>
    </g>
</svg>