<?xml version="1.0" encoding="UTF-8" standalone="no"?>
<svg width="64px" height="64px" viewBox="0 0 64 64" version="1.1" xmlns="http://www.w3.org/2000/svg" xmlns:xlink="http://www.w3.org/1999/xlink">
    <!-- Generator: Sketch 41.2 (35397) - http://www.bohemiancoding.com/sketch -->
    <title>content-tab</title>
    <desc>Created with Sketch.</desc>
    <defs></defs>
    <g id="Page-1" stroke="none" stroke-width="1" fill="none" fill-rule="evenodd">
        <g id="Desktop-HD" transform="translate(-33.000000, -475.000000)" fill="#FFFFFF">
            <g id="Menu" transform="translate(33.000000, 85.000000)">
                <g id="content" transform="translate(24.000000, 413.000000)">
                    <path d="M14.7857143,10.2857143 L0.642857143,10.2857143 C0.289285714,10.2857143 0,10.575 0,10.9285714 L0,12.2142857 C0,12.5691429 0.289285714,12.8571429 0.642857143,12.8571429 L14.7857143,12.8571429 C15.1405714,12.8571429 15.4285714,12.5691429 15.4285714,12.2142857 L15.4285714,10.9285714 C15.4285714,10.575 15.1405714,10.2857143 14.7857143,10.2857143 Z M14.7857143,5.14285714 L0.642857143,5.14285714 C0.289285714,5.14285714 0,5.43214286 0,5.78571429 L0,7.07142857 C0,7.42628571 0.289285714,7.71428571 0.642857143,7.71428571 L14.7857143,7.71428571 C15.1405714,7.71428571 15.4285714,7.42628571 15.4285714,7.07142857 L15.4285714,5.78571429 C15.4285714,5.43214286 15.1405714,5.14285714 14.7857143,5.14285714 Z M8.35714286,15.4285714 L0.642857143,15.4285714 C0.289285714,15.4285714 0,15.7178571 0,16.0714286 L0,17.3571429 C0,17.712 0.289285714,18 0.642857143,18 L8.35714286,18 C8.712,18 9,17.712 9,17.3571429 L9,16.0714286 C9,15.7178571 8.712,15.4285714 8.35714286,15.4285714 Z M14.7857143,0 L0.642857143,0 C0.289285714,0 0,0.289285714 0,0.642857143 L0,1.92857143 C0,2.28342857 0.289285714,2.57142857 0.642857143,2.57142857 L14.7857143,2.57142857 C15.1405714,2.57142857 15.4285714,2.28342857 15.4285714,1.92857143 L15.4285714,0.642857143 C15.4285714,0.289285714 15.1405714,0 14.7857143,0 Z" id="Shape"></path>
                </g>
            </g>
        </g>
    </g>
</svg>