<?xml version="1.0" encoding="UTF-8" standalone="no"?>
<svg width="64px" height="64px" viewBox="0 0 64 64" version="1.1" xmlns="http://www.w3.org/2000/svg" xmlns:xlink="http://www.w3.org/1999/xlink">
    <!-- Generator: Sketch 42 (36781) - http://www.bohemiancoding.com/sketch -->
    <title>devel</title>
    <desc>Created with Sketch.</desc>
    <defs></defs>
    <g id="Page-1" stroke="none" stroke-width="1" fill="none" fill-rule="evenodd">
        <g id="Desktop-HD" transform="translate(-629.000000, -788.000000)" fill-rule="nonzero" fill="#FFFFFF">
            <g id="Menu" transform="translate(629.000000, 463.000000)">
                <g id="devel" transform="translate(20.000000, 349.000000)">
                    <path d="M6.69038961,13.6684455 C6.41454545,13.6684455 6.13636364,13.5718945 5.91428571,13.3753026 L0,8.1429353 L6.24272727,2.61975162 C6.72428571,2.19515979 7.46298701,2.23587407 7.89194805,2.71630264 C8.32090909,3.19673122 8.27766234,3.93191489 7.79493506,4.35883326 L3.51818182,8.1429353 L7.46649351,11.6350577 C7.94922078,12.0619761 7.99246753,12.7971598 7.56350649,13.2775884 C7.33324675,13.5369965 7.01181818,13.6684455 6.69038961,13.6684455 Z M17.1455844,13.666119 L23.3883117,8.1429353 L17.474026,2.91056795 C16.9912987,2.48364958 16.2525974,2.5266904 15.8248052,3.00711897 C15.3958442,3.48754754 15.4390909,4.22273122 15.9218182,4.64964958 L19.8701299,8.1429353 L15.5933766,11.9258741 C15.1106494,12.3527924 15.0674026,13.0879761 15.4963636,13.5684047 C15.7266234,13.8278128 16.0480519,13.9592618 16.3694805,13.9592618 C16.6453247,13.9592618 16.9235065,13.8627108 17.1455844,13.666119 Z M11.6777922,15.3144659 L14.0154545,1.35528224 C14.1218182,0.721302645 13.6916883,0.122221012 13.0546753,0.0163638694 C12.4153247,-0.0906565388 11.8145455,0.338588359 11.7105195,0.972567951 L9.37285714,14.9317516 C9.26649351,15.5657312 9.69662338,16.1648128 10.3336364,16.27067 C10.3990909,16.2811394 10.4622078,16.2857924 10.5264935,16.2857924 C11.0875325,16.2857924 11.5831169,15.8821394 11.6777922,15.3144659 Z" id="Shape"></path>
                </g>
            </g>
        </g>
    </g>
</svg>