<?xml version="1.0" encoding="UTF-8"?>
<svg width="24px" height="24px" viewBox="0 0 24 24" version="1.1" xmlns="http://www.w3.org/2000/svg" xmlns:xlink="http://www.w3.org/1999/xlink">
    <!-- Generator: Sketch 43.2 (39069) - http://www.bohemiancoding.com/sketch -->
    <title>extend</title>
    <desc>Created with Sketch.</desc>
    <defs></defs>
    <g id="Page-1" stroke="none" stroke-width="1" fill="none" fill-rule="evenodd">
        <g id="Artboard">
            <g id="Extend">
                <g id="BG">
                    <rect id="Rectangle" x="0" y="0" width="24" height="24"></rect>
                </g>
                <path d="M5,13.3529412 L5,14.4544118 C5,14.6580882 5.16875,14.8235294 5.3765,14.8235294 L6.12425,14.8235294 C6.33125,14.8235294 6.5,14.6580882 6.5,14.4544118 L6.5,13.3529412 C6.5,12.6477941 7.10075,11.6816176 8,11.3095588 L8,9.76176471 C6.263,10.1558824 5,11.8602941 5,13.3529412 Z M14.04875,6.51544118 L12.15125,7.91102941 C11.891,8.10220588 11.5745,8.20588235 11.249,8.20588235 L9.50375,8.20588235 C9.0875,8.20588235 8.75,8.53676471 8.75,8.94485294 L8.75,11.8794118 C8.75,12.2867647 9.0875,12.6176471 9.50375,12.6176471 L11.249,12.6176471 C11.5745,12.6176471 11.891,12.7213235 12.15125,12.9125 L14.0495,14.3080882 C14.504,14.6426471 15.0575,14.8235294 15.626,14.8235294 L17,14.8235294 L17,6 L15.626,6 C15.0575,6 14.504,6.18088235 14.04875,6.51544118 Z M17.75,7.47058824 L17.75,8.94117647 L20,8.94117647 L20,7.47058824 L17.75,7.47058824 Z M17.75,13.3529412 L20,13.3529412 L20,11.8823529 L17.75,11.8823529 L17.75,13.3529412 Z" id="extend" fill="#FFFFFF" fill-rule="nonzero"></path>
            </g>
        </g>
    </g>
</svg>