<?xml version="1.0" encoding="UTF-8"?>
<svg width="24px" height="24px" viewBox="0 0 24 24" version="1.1" xmlns="http://www.w3.org/2000/svg" xmlns:xlink="http://www.w3.org/1999/xlink">
    <!-- Generator: Sketch 45.1 (43504) - http://www.bohemiancoding.com/sketch -->
    <title>help</title>
    <desc>Created with Sketch.</desc>
    <defs></defs>
    <g id="Page-1" stroke="none" stroke-width="1" fill="none" fill-rule="evenodd">
        <g id="Artboard" transform="translate(-75.000000, -30.000000)">
            <g id="Help" transform="translate(75.000000, 30.000000)">
                <g id="BG">
                    <rect id="Rectangle" x="0" y="0" width="24" height="24"></rect>
                </g>
                <path d="M10.1392592,19.377874 C10.7310246,19.7603839 11.4150424,20.0191406 12.2498141,19.9988901 C13.0830857,20.0191406 13.7686036,19.7603839 14.360369,19.377874 L14.3476186,17.7488316 L10.1520095,17.7488316 L10.1392592,19.377874 Z M14.2726167,16.9988121 C14.2726167,13.7309771 17.745207,12.612698 17.4849502,9.35761334 C17.321446,7.30405993 15.9301598,5 12.2498141,5 C8.56946834,5 7.17818216,7.30405993 7.01392788,9.35836336 C6.75367111,12.612698 10.2270115,13.7309771 10.2270115,16.9988121 L14.2726167,16.9988121 Z M8.49971653,9.49861701 C8.65497057,7.55006633 10.0845077,6.49853898 12.2498141,6.49853898 C14.4143704,6.49853898 15.7404049,7.52681572 15.8956589,9.4753664 C15.9804111,10.5433942 15.3668951,11.2551627 14.5388736,12.419943 C13.9283577,13.2794653 13.3365923,14.1772387 12.9998336,15.4987731 L11.4997946,15.4987731 C11.1630358,14.1772387 10.5712704,13.2794653 9.96000451,12.419193 C9.13273299,11.2551627 8.4142143,10.5666448 8.49971653,9.49861701 Z" id="help" fill="#FFFFFF" fill-rule="nonzero"></path>
            </g>
            <g id="users" transform="translate(79.000000, 30.000000)"></g>
        </g>
    </g>
</svg>