<?xml version="1.0" encoding="UTF-8" standalone="no"?>
<svg width="26px" height="26px" viewBox="0 0 26 26" version="1.1" xmlns="http://www.w3.org/2000/svg" xmlns:xlink="http://www.w3.org/1999/xlink">
    <!-- Generator: Sketch 42 (36781) - http://www.bohemiancoding.com/sketch -->
    <title>help</title>
    <desc>Created with Sketch.</desc>
    <defs></defs>
    <g id="Page-1" stroke="none" stroke-width="1" fill="none" fill-rule="evenodd">
        <g id="Desktop-HD" transform="translate(-597.000000, -358.000000)" fill-rule="nonzero" fill="#FFFFFF">
            <g id="Manage-Icons" transform="translate(597.000000, 169.000000)">
                <g id="help" transform="translate(0.000000, 189.000000)">
                    <path d="M10.18557,22.17 C10.97457,22.68 11.88657,23.025 12.99957,22.998 C14.11057,23.025 15.02457,22.68 15.81357,22.17 L15.79657,19.998 L10.20257,19.998 L10.18557,22.17 Z M15.69657,18.998 C15.69657,14.641 20.32657,13.15 19.97957,8.81 C19.76157,6.072 17.90657,3 12.99957,3 C8.09257003,3 6.23757003,6.072 6.01857003,8.811 C5.67157003,13.15 10.30257,14.641 10.30257,18.998 L15.69657,18.998 Z M7.99957003,8.998 C8.20657003,6.4 10.11257,4.998 12.99957,4.998 C15.88557,4.998 17.65357,6.369 17.86057,8.967 C17.97357,10.391 17.15557,11.34 16.05157,12.893 C15.23757,14.039 14.44857,15.236 13.99957,16.998 L11.99957,16.998 C11.55057,15.236 10.76157,14.039 9.94657003,12.892 C8.84357003,11.34 7.88557003,10.422 7.99957003,8.998 Z" id="Shape"></path>
                </g>
            </g>
        </g>
    </g>
</svg>