<?xml version="1.0" encoding="UTF-8"?>
<svg width="24px" height="24px" viewBox="0 0 24 24" version="1.1" xmlns="http://www.w3.org/2000/svg" xmlns:xlink="http://www.w3.org/1999/xlink">
    <!-- Generator: Sketch 43.2 (39069) - http://www.bohemiancoding.com/sketch -->
    <title>home</title>
    <desc>Created with Sketch.</desc>
    <defs></defs>
    <g id="Page-1" stroke="none" stroke-width="1" fill="none" fill-rule="evenodd">
        <g id="Artboard" transform="translate(0.000000, -30.000000)">
            <g id="Home" transform="translate(0.000000, 30.000000)">
                <g id="BG">
                    <rect id="Rectangle" x="0" y="0" width="24" height="24"></rect>
                </g>
                <path d="M18.6852325,12.0089643 L17.3962984,12.0089643 L17.3962984,16.6343257 C17.3962984,16.9773733 17.2467451,17.4052193 16.6254049,17.4052193 L13.5418306,17.4052193 L13.5418306,12.7798579 L10.4582564,12.7798579 L10.4582564,17.4052193 L7.37468209,17.4052193 C6.75334187,17.4052193 6.60378852,16.9773733 6.60378852,16.6343257 L6.60378852,12.0089643 L5.31485448,12.0089643 C4.85386013,12.0089643 4.95253451,11.7591948 5.26860087,11.4323359 L11.4542508,5.24051879 C11.6045751,5.08479829 11.8019238,5.00770894 12.0000435,5 C12.1981631,5.00770894 12.3955119,5.0840274 12.5458361,5.24051879 L18.7307152,11.431565 C19.0475524,11.7591948 19.1462268,12.0089643 18.6852325,12.0089643 Z" id="home" fill="#FFFFFF" fill-rule="nonzero"></path>
            </g>
        </g>
    </g>
</svg>