<?xml version="1.0" encoding="UTF-8" standalone="no"?>
<svg width="64px" height="64px" viewBox="0 0 64 64" version="1.1" xmlns="http://www.w3.org/2000/svg" xmlns:xlink="http://www.w3.org/1999/xlink">
    <!-- Generator: Sketch 42 (36781) - http://www.bohemiancoding.com/sketch -->
    <title>manage</title>
    <desc>Created with Sketch.</desc>
    <defs></defs>
    <g id="Page-1" stroke="none" stroke-width="1" fill="none" fill-rule="evenodd">
        <g id="Desktop-HD" transform="translate(-629.000000, -528.000000)" fill-rule="nonzero" fill="#FFFFFF">
            <g id="Menu" transform="translate(629.000000, 463.000000)">
                <g id="manage" transform="translate(21.000000, 86.000000)">
                    <path d="M19.4406667,10.7555556 C19.4406667,9.41239153 20.2678201,8.3547619 21.5111111,7.62748148 C21.2857566,6.87971429 20.9899788,6.16139683 20.6250582,5.48661376 C19.2306772,5.85153439 18.1026243,5.30607407 17.1538307,4.356 C16.205037,3.40848677 15.914381,2.28043386 16.2793016,0.884772487 C15.6045185,0.519851852 14.8862011,0.221513228 14.1384339,1.42155541e-15 C13.4111534,1.24201058 12.0961587,2.0678836 10.7555556,2.0678836 C9.41367196,2.0678836 8.09995767,1.24201058 7.37139683,0 C6.62234921,0.221513228 5.90659259,0.519851852 5.23180952,0.884772487 C5.59673016,2.28043386 5.3073545,3.40848677 4.356,4.356 C3.40848677,5.30607407 2.28043386,5.85153439 0.884772487,5.48661376 C0.519851852,6.16139683 0.222793651,6.87971429 2.84311081e-16,7.62748148 C1.24201058,8.3547619 2.0678836,9.41239153 2.0678836,10.7555556 C2.0678836,12.0961587 1.24201058,13.4111534 0,14.1397143 C0.224074074,14.8874815 0.519851852,15.6045185 0.884772487,16.280582 C2.28043386,15.9156614 3.40848677,16.205037 4.356,17.1538307 C5.30479365,18.1039048 5.59673016,19.2319577 5.23180952,20.6250582 C5.90659259,20.9899788 6.62362963,21.2883175 7.37267725,21.5123915 C8.09995767,20.2665397 9.41495238,19.4419471 10.756836,19.4419471 C12.0974392,19.4419471 13.4124339,20.2678201 14.1409947,21.5123915 C14.8887619,21.287037 15.6057989,20.9899788 16.2818624,20.6250582 C15.9169418,19.2319577 16.2063175,18.1039048 17.1563915,17.1538307 C18.1051852,16.2063175 19.2332381,15.6608571 20.627619,16.0232169 C20.9925397,15.3484339 21.2895979,14.6326772 21.513672,13.8823492 C20.2678201,13.1537884 19.4406667,12.0961587 19.4406667,10.7555556 Z M10.7555556,15.4316614 C8.17166138,15.4316614 6.07816931,13.3381693 6.07816931,10.7555556 C6.07816931,8.17166138 8.1729418,6.07688889 10.7555556,6.07688889 C13.3394497,6.07688889 15.4316614,8.1729418 15.4316614,10.7555556 C15.4316614,13.3394497 13.3394497,15.4316614 10.7555556,15.4316614 Z" id="Shape"></path>
                </g>
            </g>
        </g>
    </g>
</svg>