<?xml version="1.0" encoding="UTF-8" standalone="no"?>
<svg width="64px" height="64px" viewBox="0 0 64 64" version="1.1" xmlns="http://www.w3.org/2000/svg" xmlns:xlink="http://www.w3.org/1999/xlink">
    <!-- Generator: Sketch 42 (36781) - http://www.bohemiancoding.com/sketch -->
    <title>modules-tab</title>
    <desc>Created with Sketch.</desc>
    <defs></defs>
    <g id="Page-1" stroke="none" stroke-width="1" fill="none" fill-rule="evenodd">
        <g id="Desktop-HD" transform="translate(-33.000000, -604.000000)" fill-rule="nonzero" fill="#FFFFFF">
            <g id="Menu" transform="translate(33.000000, 85.000000)">
                <g id="modules" transform="translate(0.000000, 519.000000)">
                    <path d="M21,37 L21,38.7976 C21,39.13 21.27,39.4 21.6024,39.4 L22.7988,39.4 C23.13,39.4 23.4,39.13 23.4,38.7976 L23.4,37 C23.4,35.8492 24.3612,34.2724 25.8,33.6652 L25.8,31.1392 C23.0208,31.7824 21,34.564 21,37 Z M35.478,25.8412 L32.442,28.1188 C32.0256,28.4308 31.5192,28.6 30.9984,28.6 L28.206,28.6 C27.54,28.6 27,29.14 27,29.806 L27,34.5952 C27,35.26 27.54,35.8 28.206,35.8 L30.9984,35.8 C31.5192,35.8 32.0256,35.9692 32.442,36.2812 L35.4792,38.5588 C36.2064,39.1048 37.092,39.4 38.0016,39.4 L40.2,39.4 L40.2,25 L38.0016,25 C37.092,25 36.2064,25.2952 35.478,25.8412 Z M41.4,27.4 L41.4,29.8 L45,29.8 L45,27.4 L41.4,27.4 Z M41.4,37 L45,37 L45,34.6 L41.4,34.6 L41.4,37 Z" id="Shape"></path>
                </g>
            </g>
        </g>
    </g>
</svg>