<?xml version="1.0" encoding="UTF-8" standalone="no"?>
<svg width="26px" height="26px" viewBox="0 0 26 26" version="1.1" xmlns="http://www.w3.org/2000/svg" xmlns:xlink="http://www.w3.org/1999/xlink">
    <!-- Generator: Sketch 42 (36781) - http://www.bohemiancoding.com/sketch -->
    <title>people</title>
    <desc>Created with Sketch.</desc>
    <defs></defs>
    <g id="Page-1" stroke="none" stroke-width="1" fill="none" fill-rule="evenodd">
        <g id="Desktop-HD" transform="translate(-597.000000, -304.000000)" fill-rule="nonzero" fill="#FFFFFF">
            <g id="Manage-Icons" transform="translate(597.000000, 169.000000)">
                <g id="people" transform="translate(0.000000, 135.000000)">
                    <path d="M18.989,22.129 C18.989,19.883 16.802,18.74 14.672,17.822 C12.549,16.908 11.871,16.138 11.871,14.488 C11.871,13.499 12.519,13.821 12.803,12.007 C12.923,11.255 13.495,11.995 13.605,10.278 C13.605,9.594 13.292,9.424 13.292,9.424 C13.292,9.424 13.451,8.411 13.513,7.631 C13.577,6.814 13.115,5.071 11.212,4.536 C10.88,4.195 10.655,3.654 11.679,3.112 C9.439,3.008 8.918,4.18 7.725,5.042 C6.71,5.798 6.436,6.995 6.485,7.632 C6.55,8.412 6.708,9.425 6.708,9.425 C6.708,9.425 6.394,9.595 6.394,10.279 C6.504,11.997 7.078,11.256 7.197,12.008 C7.481,13.822 8.13,13.5 8.13,14.489 C8.13,16.139 7.918,16.699 5.794,17.613 C3.663,18.53 3,20 3.011,22.129 C3.014,22.766 3,23 3,23 L19,23 C19,23 18.989,22.766 18.989,22.129 Z M21.528,16.365 C20.393,15.908 19.923,15.363 19.923,14.299 C19.923,13.658 20.341,13.867 20.525,12.696 C20.602,12.212 20.972,12.688 21.043,11.581 C21.043,11.14 20.841,11.03 20.841,11.03 C20.841,11.03 20.944,10.374 20.984,9.871 C21.034,9.244 20.62,7.624 18.716,7.624 C16.813,7.624 16.398,9.244 16.447,9.871 C16.489,10.373 16.591,11.03 16.591,11.03 C16.591,11.03 16.389,11.139 16.389,11.581 C16.46,12.688 16.83,12.212 16.907,12.696 C17.091,13.868 17.509,13.659 17.509,14.299 C17.509,15.363 17.071,15.861 15.7,16.451 C15.631,16.48 15.58,16.519 15.517,16.553 C17.157,17.265 19.743,18.494 20.355,21 L23,21 L23,18.682 C23,17.682 22.727,16.848 21.528,16.365 Z" id="Shape"></path>
                </g>
            </g>
        </g>
    </g>
</svg>