<?xml version="1.0" encoding="UTF-8" standalone="no"?>
<svg width="26px" height="26px" viewBox="0 0 26 26" version="1.1" xmlns="http://www.w3.org/2000/svg" xmlns:xlink="http://www.w3.org/1999/xlink">
    <!-- Generator: Sketch 42 (36781) - http://www.bohemiancoding.com/sketch -->
    <title>reports</title>
    <desc>Created with Sketch.</desc>
    <defs></defs>
    <g id="Page-1" stroke="none" stroke-width="1" fill="none" fill-rule="evenodd">
        <g id="Desktop-HD" transform="translate(-597.000000, -331.000000)" fill-rule="nonzero" fill="#FFFFFF">
            <g id="Manage-Icons" transform="translate(597.000000, 169.000000)">
                <g id="reports" transform="translate(0.000000, 162.000000)">
                    <path d="M3.69,14.331 L5.053,14.669 L6.079,13.058 L4.129,12.576 C3.641,12.455 3.148,12.75 3.027,13.236 C2.906,13.719 3.202,14.209 3.69,14.331 Z M21.481,14.592 L17.018,18.608 L11.771,14.547 C11.671,14.471 11.556,14.414 11.433,14.385 L10.735,14.211 L9.708,15.822 L10.808,16.095 L16.505,20.503 C16.671,20.63 16.867,20.692 17.064,20.692 C17.283,20.692 17.502,20.614 17.673,20.46 L22.701,15.933 C23.073,15.599 23.102,15.027 22.765,14.656 C22.428,14.286 21.854,14.256 21.481,14.592 Z M11.684,10.18 L16.571,13.309 C16.984,13.573 17.532,13.463 17.811,13.063 L22.838,5.821 C23.124,5.409 23.021,4.844 22.607,4.561 C22.193,4.276 21.628,4.379 21.342,4.791 L16.814,11.312 L11.898,8.165 C11.694,8.034 11.447,7.991 11.21,8.042 C10.974,8.095 10.768,8.239 10.639,8.442 L3.142,20.209 C2.872,20.631 2.998,21.192 3.422,21.459 C3.572,21.555 3.741,21.6 3.908,21.6 C4.209,21.6 4.504,21.451 4.676,21.18 L11.684,10.18 Z" id="Shape"></path>
                </g>
            </g>
        </g>
    </g>
</svg>