<?xml version="1.0" encoding="UTF-8"?>
<svg width="24px" height="24px" viewBox="0 0 24 24" version="1.1" xmlns="http://www.w3.org/2000/svg" xmlns:xlink="http://www.w3.org/1999/xlink">
    <!-- Generator: Sketch 45.1 (43504) - http://www.bohemiancoding.com/sketch -->
    <title>reports</title>
    <desc>Created with Sketch.</desc>
    <defs></defs>
    <g id="Page-1" stroke="none" stroke-width="1" fill="none" fill-rule="evenodd">
        <g id="Artboard" transform="translate(-50.000000, 0.000000)">
            <g id="Reports" transform="translate(50.000000, 0.000000)">
                <g id="BG">
                    <rect id="Rectangle" x="0" y="0" width="24" height="24"></rect>
                </g>
                <path d="M4.55216917,12.9448322 L5.64255622,13.215229 L6.46334647,11.9264443 L4.903365,11.5408489 C4.51296963,11.44405 4.11857431,11.6800472 4.02177546,12.0688426 C3.92497661,12.455238 4.1617738,12.8472334 4.55216917,12.9448322 Z M18.7848002,13.1536297 L15.2144426,16.3663916 L11.0168924,13.1176302 C10.9368934,13.0568309 10.8448944,13.0112314 10.7464956,12.9880317 L10.1881022,12.8488333 L9.366512,14.137618 L10.2465015,14.3560154 L14.8040474,17.8823736 C14.9368459,17.9839724 15.093644,18.0335718 15.2512421,18.0335718 C15.42644,18.0335718 15.601638,17.9711725 15.7384363,17.847974 L19.7607886,14.226417 C20.058385,13.9592202 20.0815848,13.5016256 19.811988,13.2048291 C19.5423912,12.9088326 19.0831966,12.8848329 18.7848002,13.1536297 Z M10.9472932,9.62407163 L14.8568468,12.1272419 C15.1872429,12.3384394 15.6256377,12.2504404 15.848835,11.9304442 L19.8703873,6.13691304 C20.0991846,5.80731696 20.0167855,5.35532232 19.6855895,5.12892501 C19.3543934,4.90092772 18.9023988,4.98332674 18.6736015,5.31292283 L15.0512445,10.5296609 L11.1184912,8.01209078 C10.9552931,7.90729202 10.7576955,7.87289243 10.5680977,7.91369194 C10.3793,7.95609144 10.2145019,8.07129007 10.1113032,8.23368814 L4.11377437,17.6471764 C3.89777694,17.9847724 3.99857574,18.433567 4.33777171,18.6471645 C4.45777029,18.7239636 4.59296868,18.7599632 4.72656709,18.7599632 C4.96736424,18.7599632 5.20336143,18.6407646 5.3409598,18.4239671 L10.9472932,9.62407163 Z" id="reports" fill="#FFFFFF" fill-rule="nonzero"></path>
            </g>
        </g>
    </g>
</svg>