<?xml version="1.0" encoding="UTF-8" standalone="no"?>
<svg width="26px" height="26px" viewBox="0 0 26 26" version="1.1" xmlns="http://www.w3.org/2000/svg" xmlns:xlink="http://www.w3.org/1999/xlink">
    <!-- Generator: Sketch 42 (36781) - http://www.bohemiancoding.com/sketch -->
    <title>structure</title>
    <desc>Created with Sketch.</desc>
    <defs></defs>
    <g id="Page-1" stroke="none" stroke-width="1" fill="none" fill-rule="evenodd">
        <g id="Desktop-HD" transform="translate(-597.000000, -196.000000)" fill-rule="nonzero" fill="#FFFFFF">
            <g id="Manage-Icons" transform="translate(597.000000, 169.000000)">
                <g id="structure" transform="translate(0.000000, 27.000000)">
                    <path d="M21,17.824 L21,15.5 C21,13.567 19.433,12 17.5,12 L15.5,12 C14.672,12 14,11.328 14,10.5 L14,8.176 C14.825,7.796 15.4,6.968 15.4,6 C15.4,4.674 14.326,3.6 13,3.6 C11.674,3.6 10.6,4.674 10.6,6 C10.6,6.967 11.176,7.796 12,8.176 L12,10.5 C12,11.328 11.328,12 10.5,12 L8.5,12 C6.567,12 5,13.567 5,15.5 L5,17.824 C4.175,18.204 3.6,19.033 3.6,20 C3.6,21.326 4.674,22.4 6,22.4 C7.326,22.4 8.4,21.325 8.4,20 C8.4,19.033 7.824,18.204 7,17.824 L7,15.5 C7,14.672 7.672,14 8.5,14 L10.5,14 C11.039,14 11.544,13.868 12,13.65 L12,17.824 C11.175,18.204 10.6,19.033 10.6,20 C10.6,21.326 11.674,22.4 13,22.4 C14.326,22.4 15.4,21.325 15.4,20 C15.4,19.033 14.824,18.204 14,17.824 L14,13.65 C14.456,13.868 14.961,14 15.5,14 L17.5,14 C18.328,14 19,14.672 19,15.5 L19,17.824 C18.175,18.204 17.6,19.032 17.6,20 C17.6,21.326 18.674,22.4 20,22.4 C21.326,22.4 22.4,21.325 22.4,20 C22.4,19.033 21.825,18.204 21,17.824 Z M13,4.615 C13.764,4.615 14.384,5.234 14.384,6 C14.384,6.764 13.764,7.385 13,7.385 C12.235,7.385 11.616,6.764 11.616,6 C11.616,5.234 12.235,4.615 13,4.615 Z M6,21.385 C5.234,21.385 4.615,20.764 4.615,20 C4.615,19.234 5.234,18.615 6,18.615 C6.764,18.615 7.384,19.234 7.384,20 C7.384,20.764 6.764,21.385 6,21.385 Z M13,21.385 C12.234,21.385 11.615,20.764 11.615,20 C11.615,19.234 12.234,18.615 13,18.615 C13.764,18.615 14.384,19.234 14.384,20 C14.384,20.764 13.764,21.385 13,21.385 Z M20,21.385 C19.234,21.385 18.615,20.764 18.615,20 C18.615,19.234 19.234,18.615 20,18.615 C20.764,18.615 21.384,19.234 21.384,20 C21.384,20.764 20.764,21.385 20,21.385 Z" id="Shape"></path>
                </g>
            </g>
        </g>
    </g>
</svg>