<?xml version="1.0" encoding="UTF-8" standalone="no"?>
<svg width="64px" height="64px" viewBox="0 0 64 64" version="1.1" xmlns="http://www.w3.org/2000/svg" xmlns:xlink="http://www.w3.org/1999/xlink">
    <!-- Generator: Sketch 42 (36781) - http://www.bohemiancoding.com/sketch -->
    <title>themes-tab</title>
    <desc>Created with Sketch.</desc>
    <defs></defs>
    <g id="Page-1" stroke="none" stroke-width="1" fill="none" fill-rule="evenodd">
        <g id="Desktop-HD" transform="translate(-33.000000, -670.000000)" fill-rule="nonzero" fill="#FFFFFF">
            <g id="Menu" transform="translate(33.000000, 85.000000)">
                <g id="themes" transform="translate(0.000000, 585.000000)">
                    <path d="M26.6124219,44.8985371 C27.0071213,43.6360131 27.6023847,41.8592228 28.4007832,39.2904622 C31.881081,38.7389115 33.3210268,39.7288743 35.5310866,35.7818798 C33.7375826,36.3308591 31.5750925,34.7636323 31.6908024,34.083515 C31.807798,33.4046834 36.7216133,34.5733538 39.9396352,30.0040969 C35.8833591,30.8989205 34.5861222,28.9292802 35.1093882,28.6322914 C36.3166285,27.9457457 39.8997796,28.3468735 41.8102792,26.4865149 C42.7950993,25.5286937 43.2566534,23.2003527 42.8555256,22.3698125 C42.3746865,21.3657074 39.4407968,19.8679065 37.823429,20.0093298 C36.2060613,20.1494674 33.6694423,26.1676697 32.9160421,26.1213857 C32.1652131,26.0738161 32.0122189,23.4240586 33.3261695,20.9620082 C31.9415073,21.5752709 29.4036027,23.4806279 28.6077754,25.1095666 C27.1254026,28.1398813 28.7466274,35.0940485 28.2272183,35.3408963 C27.7065236,35.5890299 25.9567322,32.1511591 25.4347518,30.5916463 C24.7212072,32.9816993 24.7044936,35.3756093 26.7885581,38.5550612 C26.0030162,40.6416971 25.5736038,43.0433211 25.5080348,44.2647038 C25.4771788,45.2405242 26.438857,45.4500878 26.6124219,44.8985371 Z" id="Shape"></path>
                </g>
            </g>
        </g>
    </g>
</svg>