<?xml version="1.0" encoding="UTF-8"?>
<svg width="24px" height="24px" viewBox="0 0 24 24" version="1.1" xmlns="http://www.w3.org/2000/svg" xmlns:xlink="http://www.w3.org/1999/xlink">
    <!-- Generator: Sketch 45.1 (43504) - http://www.bohemiancoding.com/sketch -->
    <title>users</title>
    <desc>Created with Sketch.</desc>
    <defs></defs>
    <g id="Page-1" stroke="none" stroke-width="1" fill="none" fill-rule="evenodd">
        <g id="Artboard" transform="translate(-75.000000, 0.000000)">
            <g id="Users" transform="translate(75.000000, 0.000000)">
                <g id="BG">
                    <rect id="Rectangle" x="0" y="0" width="24" height="24"></rect>
                </g>
                <path d="M16.99175,18.2676018 C16.99175,16.5831018 15.3515,15.7258518 13.754,15.0373518 C12.16175,14.3518518 11.65325,13.7743518 11.65325,12.5368518 C11.65325,11.7951018 12.13925,12.0366018 12.35225,10.6761018 C12.44225,10.1121018 12.87125,10.6671018 12.95375,9.37935175 C12.95375,8.86635175 12.719,8.73885175 12.719,8.73885175 C12.719,8.73885175 12.83825,7.97910175 12.88475,7.39410175 C12.93275,6.78135175 12.58625,5.47410175 11.159,5.07285175 C10.91,4.81710175 10.74125,4.41135175 11.50925,4.00485175 C9.82925,3.92685175 9.4385,4.80585175 8.54375,5.45235175 C7.7825,6.01935175 7.577,6.91710175 7.61375,7.39485175 C7.6625,7.97985175 7.781,8.73960175 7.781,8.73960175 C7.781,8.73960175 7.5455,8.86710175 7.5455,9.38010175 C7.628,10.6686018 8.0585,10.1128518 8.14775,10.6768518 C8.36075,12.0373518 8.8475,11.7958518 8.8475,12.5376018 C8.8475,13.7751018 8.6885,14.1951018 7.0955,14.8806018 C5.49725,15.5683518 5,16.6708518 5.00825,18.2676018 C5.0105,18.7453518 5,18.9208518 5,18.9208518 L17,18.9208518 C17,18.9208518 16.99175,18.7453518 16.99175,18.2676018 Z M18.896,13.9446018 C18.04475,13.6018518 17.69225,13.1931018 17.69225,12.3951018 C17.69225,11.9143518 18.00575,12.0711018 18.14375,11.1928518 C18.2015,10.8298518 18.479,11.1868518 18.53225,10.3566018 C18.53225,10.0258518 18.38075,9.94335175 18.38075,9.94335175 C18.38075,9.94335175 18.458,9.45135175 18.488,9.07410175 C18.5255,8.60385175 18.215,7.38885175 16.787,7.38885175 C15.35975,7.38885175 15.0485,8.60385175 15.08525,9.07410175 C15.11675,9.45060175 15.19325,9.94335175 15.19325,9.94335175 C15.19325,9.94335175 15.04175,10.0251018 15.04175,10.3566018 C15.095,11.1868518 15.3725,10.8298518 15.43025,11.1928518 C15.56825,12.0718518 15.88175,11.9151018 15.88175,12.3951018 C15.88175,13.1931018 15.55325,13.5666018 14.525,14.0091018 C14.47325,14.0308518 14.435,14.0601018 14.38775,14.0856018 C15.61775,14.6196018 17.55725,15.5413518 18.01625,17.4208518 L20,17.4208518 C20,17.4208518 20,15.9913518 20,15.6823518 C20,14.9323518 19.79525,14.3068518 18.896,13.9446018 Z" id="users" fill="#FFFFFF" fill-rule="nonzero"></path>
            </g>
        </g>
    </g>
</svg>