<?xml version="1.0" encoding="UTF-8" standalone="no"?>
<svg width="64px" height="64px" viewBox="0 0 64 64" version="1.1" xmlns="http://www.w3.org/2000/svg" xmlns:xlink="http://www.w3.org/1999/xlink">
    <!-- Generator: Sketch 42 (36781) - http://www.bohemiancoding.com/sketch -->
    <title>user</title>
    <desc>Created with Sketch.</desc>
    <defs></defs>
    <g id="Page-1" stroke="none" stroke-width="1" fill="none" fill-rule="evenodd">
        <g id="Desktop-HD" transform="translate(-629.000000, -658.000000)" fill-rule="nonzero" fill="#FFFFFF">
            <g id="Menu" transform="translate(629.000000, 463.000000)">
                <g id="user" transform="translate(21.000000, 214.000000)">
                    <path d="M8.07,2.5752 C6.8508,3.4824 6.5232,4.9188 6.5832,5.6832 C6.66,6.618 6.8496,7.8348 6.8496,7.8348 C6.8496,7.8348 6.474,8.0388 6.474,8.8596 C6.6048,10.92 7.2936,10.0308 7.4352,10.9344 C7.776,13.1112 8.5548,12.7236 8.5548,13.9116 C8.5548,15.8904 7.7388,16.8156 5.1912,17.9124 C2.6352,19.014 0,20.4 0,22.8 L0,24 L21.6,24 L21.6,22.8 C21.6,20.4 18.9636,19.014 16.4064,17.9136 C13.8588,16.8168 13.0452,15.8928 13.0452,13.9128 C13.0452,12.7248 13.8216,13.1124 14.1636,10.9356 C14.3064,10.032 14.994,10.9212 15.1272,8.8608 C15.1272,8.04 14.7504,7.836 14.7504,7.836 C14.7504,7.836 14.94,6.6192 15.0156,5.6844 C15.0936,4.704 14.538,2.6112 12.2556,1.9692 C11.856,1.5612 11.586,0.912 12.8148,0.2604 C10.1268,0.1344 9.5016,1.5408 8.07,2.5752 Z" id="Shape"></path>
                </g>
            </g>
        </g>
    </g>
</svg>